M48
;GenerationSoftware,Autodesk,EAGLE,9.6.2*%
;CreationDate,2022-12-11T15:29:51Z*%
FMAT,2
ICI,OFF
METRIC,TZ,000.000
T5C0.350
T4C0.813
T3C0.900
T2C1.016
T1C1.118
%
G90
M71
T1
X31750Y29210
X21590Y29210
X30480Y44450
X20320Y44450
T2
X3810Y22860
X3810Y25400
X3810Y17780
X57150Y11430
X52070Y11430
X54610Y11430
X59690Y11430
X59690Y22860
X54610Y22860
X3810Y20320
T3
X60960Y2540
X2540Y60960
X60960Y60960
X2540Y2540
T4
X59690Y45720
X59690Y43180
X59690Y40640
X13970Y21590
X8890Y21590
X54610Y57150
X54610Y54610
X45720Y54610
X45720Y57150
X59690Y38100
X40640Y24130
X41910Y22225
X43180Y24130
X13970Y31750
X13970Y41910
X16510Y6350
X11430Y6350
X13970Y6350
X20320Y50800
X30480Y50800
X26670Y2540
X26670Y12700
X38100Y39370
X38100Y31750
X48260Y31750
X59690Y48260
X48260Y39370
X26670Y21590
X24765Y20320
X26670Y19050
X40640Y50800
X38735Y49530
X40640Y48260
T5
X59690Y20320
X5080Y21590
X52070Y20320
X54610Y25400
M30